<svg xmlns="http://www.w3.org/2000/svg" fill="none" viewBox="0 0 24 24" id="Steam--Streamline-Svg-Logos" height="24" width="24">
  <desc>
    Steam Streamline Icon: https://streamlinehq.com
  </desc>
  <path fill="#1a1918" d="M11.97985 0.25C5.86315 0.25 0.85233 5.009475 0.376465 11.057475L6.61715 13.661325c0.52865 -0.365275 1.1679 -0.578075 1.854875 -0.578075 0.062 0 0.12315 0.0017 0.183475 0.00505l2.7756 -4.05995v-0.05695c0 -2.443 1.96965 -4.431075 4.39085 -4.431075 2.421225 0 4.39085 1.988075 4.39085 4.431075 0 2.442975 -1.969625 4.4319 -4.39085 4.4319 -0.0335 0 -0.066175 -0.00085 -0.0997 -0.001675L11.7637 16.25095c0.002525 0.052775 0.0042 0.10555 0.0042 0.1575 0 1.83475 -1.4787 3.32685 -3.295875 3.32685 -1.59515 0 -2.92975 -1.149425 -3.23135 -2.67085L0.7769275 15.202025C2.15928 20.1341 6.649825 23.75 11.97985 23.75c6.430875 0 11.6436 -5.261325 11.6436 -11.75 0 -6.489525 -5.212725 -11.75 -11.6436 -11.75Zm-4.30675 17.828675 -1.4301 -0.596525c0.253025 0.53285 0.692025 0.97855 1.274275 1.223175 1.258375 0.5295 2.709425 -0.072875 3.233875 -1.3438 0.25385 -0.61495 0.255525 -1.29355 0.0042 -1.910175 -0.25135 -0.6166 -0.726375 -1.0975 -1.33545 -1.35385 -0.605725 -0.25385 -1.254175 -0.24465 -1.823875 -0.02765l1.477875 0.6166c0.928275 0.390425 1.367275 1.46615 0.9802 2.402775 -0.386225 0.93665 -1.452725 1.37985 -2.381 0.98945Zm11.07475 -9.1072c0 -1.627825 -1.312825 -2.9532 -2.92555 -2.9532 -1.6136 0 -2.9264 1.325375 -2.9264 2.9532 0 1.627825 1.3128 2.952375 2.9264 2.952375 1.612725 0 2.92555 -1.32455 2.92555 -2.952375Zm-5.1189 -0.005025c0 -1.22485 0.9844 -2.217625 2.197525 -2.217625 1.21395 0 2.198375 0.992775 2.198375 2.217625s-0.984425 2.217625 -2.198375 2.217625c-1.213125 0 -2.197525 -0.992775 -2.197525 -2.217625Z" stroke-width="0.25"></path>
</svg>